<?xml version="1.0" standalone="no"?><!DOCTYPE svg PUBLIC "-//W3C//DTD SVG 1.1//EN" "http://www.w3.org/Graphics/SVG/1.1/DTD/svg11.dtd"><svg t="1680750067639" class="icon" viewBox="0 0 1024 1024" version="1.1" xmlns="http://www.w3.org/2000/svg" p-id="25822" width="32" height="32" xmlns:xlink="http://www.w3.org/1999/xlink"><path d="M812.373333 768h-614.4c-58.026667 0-102.4-44.373333-102.4-102.4v-204.8c0-37.546667 30.72-68.266667 68.266667-68.266667h682.666667v-68.266666c0-20.48-13.653333-34.133333-34.133334-34.133334h-614.4c-20.48 0-34.133333 13.653333-34.133333 34.133334s-13.653333 34.133333-34.133333 34.133333-34.133333-13.653333-34.133334-34.133333c0-58.026667 44.373333-102.4 102.4-102.4h614.4c58.026667 0 102.4 44.373333 102.4 102.4v68.266666c0 37.546667-30.72 68.266667-68.266666 68.266667h-682.666667v204.8c0 20.48 13.653333 34.133333 34.133333 34.133333h614.4c20.48 0 34.133333-13.653333 34.133334-34.133333v-102.4c0-20.48 13.653333-34.133333 34.133333-34.133333s34.133333 13.653333 34.133333 34.133333v102.4c0 54.613333-47.786667 102.4-102.4 102.4z m-34.133333-204.8c0-20.48-13.653333-34.133333-34.133333-34.133333h-136.533334c-20.48 0-34.133333 13.653333-34.133333 34.133333s13.653333 34.133333 34.133333 34.133333h136.533334c17.066667 0 34.133333-17.066667 34.133333-34.133333z" fill="#ffffff" p-id="25823"></path></svg>