<?xml version="1.0" standalone="no"?><!DOCTYPE svg PUBLIC "-//W3C//DTD SVG 1.1//EN" "http://www.w3.org/Graphics/SVG/1.1/DTD/svg11.dtd"><svg t="1680744590075" class="icon" viewBox="0 0 1024 1024" version="1.1" xmlns="http://www.w3.org/2000/svg" p-id="14317" width="32" height="32" xmlns:xlink="http://www.w3.org/1999/xlink"><path d="M293.376 810.496l-214.528 200.192c-18.432 17.408-46.592 17.408-65.024 0s-18.432-43.52 0-60.928l214.528-200.192c18.432-17.408 46.592-17.408 65.024 0s18.944 43.52 0 60.928z m671.232-60.928h-279.552c-18.432 26.112-111.616 139.264-167.936 209.408-28.16 34.816-74.752 34.816-102.4-17.408-37.376-95.744-93.184-235.52-93.184-235.52S153.6 636.416 51.2 592.384c-37.376-17.408-46.592-60.928 0-87.04 83.968-60.928 214.528-156.672 214.528-156.672s9.216-174.08 9.216-279.04C274.944 8.704 293.376 0 303.104 0c9.216 0 28.16 0 65.024 26.112 93.184 60.928 242.176 156.672 242.176 156.672s158.208-43.52 251.392-69.632c46.592-17.408 83.968 17.408 74.752 52.224l-74.752 279.04s93.184 121.856 148.992 209.408c28.672 52.224 9.728 95.744-46.08 95.744z" p-id="14318" fill="#ffffff"></path></svg>